<svg width="18" height="22" viewBox="0 0 18 22" fill="none" xmlns="http://www.w3.org/2000/svg">
<path d="M5.29161 20.7449L5.64904 18.4751L4.85293 18.4566H1.05142L3.6933 1.70705C3.70137 1.65648 3.72812 1.60933 3.76707 1.57585C3.80602 1.54238 3.85598 1.52393 3.90792 1.52393H10.3179C12.4459 1.52393 13.9144 1.9667 14.6812 2.84062C15.0406 3.25061 15.2696 3.67902 15.3803 4.15049C15.4964 4.64521 15.4985 5.23625 15.385 5.95713L15.3768 6.00974V6.47163L15.7364 6.67527C16.0391 6.83583 16.2795 7.01964 16.464 7.2301C16.7717 7.58062 16.9706 8.02613 17.0546 8.55431C17.1413 9.09753 17.1126 9.74392 16.9706 10.4757C16.8065 11.3176 16.5413 12.0507 16.1833 12.6507C15.8538 13.2034 15.4342 13.6618 14.9361 14.0173C14.4605 14.3548 13.8953 14.6111 13.2564 14.7751C12.6371 14.9362 11.9313 15.0176 11.157 15.0176H10.6582C10.3015 15.0176 9.95493 15.1461 9.68307 15.3764C9.41042 15.6114 9.22984 15.9324 9.17456 16.2837L9.13699 16.4881L8.50553 20.4886L8.47681 20.6355C8.46934 20.6822 8.45636 20.7054 8.43727 20.7211C8.42016 20.7353 8.39557 20.7449 8.37157 20.7449H5.29161Z" fill="#253B80"/>
<path d="M16.0751 6.06396C16.056 6.18627 16.0342 6.31131 16.0096 6.43976C15.1641 10.7794 12.2722 12.2785 8.5785 12.2785H6.6979C6.24624 12.2785 5.8656 12.6065 5.79518 13.052L4.83226 19.1579L4.55961 20.8886C4.51378 21.1811 4.73941 21.4449 5.03448 21.4449H8.37017C8.76518 21.4449 9.10057 21.1579 9.16274 20.7685L9.19559 20.5989L9.8237 16.6139L9.86403 16.3954C9.9254 16.0046 10.2616 15.7176 10.6566 15.7176H11.1555C14.3871 15.7176 16.917 14.4057 17.6565 10.6092C17.9653 9.02329 17.8054 7.69908 16.9881 6.76775C16.7408 6.48691 16.4339 6.25391 16.0751 6.06396Z" fill="#179BD7"/>
<path d="M15.1891 5.7106C15.0601 5.67302 14.9267 5.63885 14.79 5.60811C14.6527 5.57805 14.5118 5.5514 14.367 5.52817C13.8599 5.44617 13.3044 5.40723 12.7091 5.40723H7.68503C7.5613 5.40723 7.44386 5.43524 7.33862 5.4858C7.10689 5.59717 6.93477 5.81652 6.89306 6.08505L5.82411 12.8537L5.79343 13.0512C5.86385 12.6057 6.24449 12.2777 6.69615 12.2777H8.57674C12.2705 12.2777 15.1626 10.7779 16.0078 6.43899C16.033 6.31053 16.0543 6.1855 16.0733 6.06319C15.8595 5.94976 15.6278 5.85273 15.3783 5.77004C15.317 5.74955 15.2534 5.72974 15.1891 5.7106Z" fill="#222D65"/>
<path d="M6.89601 6.08537C6.93772 5.81683 7.11004 5.5975 7.34157 5.4868C7.4476 5.43623 7.56445 5.40822 7.68799 5.40822H12.7123C13.3075 5.40822 13.8631 5.44717 14.37 5.52917C14.515 5.5524 14.6558 5.57905 14.7931 5.6091C14.9298 5.63986 15.063 5.67403 15.1923 5.7116C15.2564 5.73074 15.3199 5.75054 15.3821 5.77037C15.6315 5.85304 15.8633 5.95076 16.0771 6.0635C16.3287 4.45981 16.0751 3.36791 15.208 2.37918C14.252 1.29071 12.5264 0.824707 10.3185 0.824707H3.90831C3.45725 0.824707 3.07267 1.15267 3.00283 1.59887L0.333023 18.5206C0.280303 18.8554 0.53859 19.1575 0.876152 19.1575H4.83366L5.82726 12.8541L6.89601 6.08537Z" fill="#253B80"/>
</svg>
