<svg width="41" height="14" viewBox="0 0 41 14" fill="none" xmlns="http://www.w3.org/2000/svg">
<path d="M17.6383 13.2211H14.341L16.4034 0.470703H19.7004L17.6383 13.2211Z" fill="#00579F"/>
<path d="M29.5898 0.782093C28.9394 0.524107 27.9079 0.239258 26.6324 0.239258C23.3763 0.239258 21.0834 1.97539 21.0693 4.45754C21.0423 6.28887 22.711 7.30603 23.9591 7.91665C25.2347 8.54061 25.6683 8.94787 25.6683 9.50405C25.6554 10.3582 24.6375 10.752 23.6882 10.752C22.3718 10.752 21.6665 10.549 20.5946 10.0737L20.1604 9.87003L19.699 12.7322C20.4723 13.0845 21.8971 13.3971 23.3763 13.4108C26.836 13.4108 29.0884 11.7015 29.115 9.05641C29.1282 7.60494 28.2471 6.49277 26.3474 5.58396C25.1941 5.00056 24.4879 4.60718 24.4879 4.01026C24.5014 3.4676 25.0852 2.91179 26.387 2.91179C27.4589 2.88456 28.2465 3.14219 28.8431 3.4L29.1414 3.53539L29.5898 0.782093Z" fill="#00579F"/>
<path d="M33.9738 8.70409C34.2454 7.97159 35.2902 5.13663 35.2902 5.13663C35.2765 5.16385 35.5612 4.39061 35.724 3.91593L35.9545 5.01458C35.9545 5.01458 36.5789 8.0666 36.7144 8.70409C36.1991 8.70409 34.6251 8.70409 33.9738 8.70409ZM38.0438 0.470703H35.4934C34.7069 0.470703 34.1094 0.701106 33.7701 1.52861L28.8725 13.2209H32.3321C32.3321 13.2209 32.9017 11.6472 33.0242 11.3083C33.4037 11.3083 36.7693 11.3083 37.2575 11.3083C37.3522 11.7559 37.651 13.2209 37.651 13.2209H40.7039L38.0438 0.470703Z" fill="#00579F"/>
<path d="M11.5867 0.470703L8.35762 9.16525L8.00476 7.4019C7.40778 5.36721 5.53549 3.15657 3.44612 2.05738L6.40384 13.2076H9.89057L15.0732 0.470703H11.5867Z" fill="#00579F"/>
<path d="M5.35917 0.470703H0.054241L-3.05176e-05 0.728358C4.13814 1.78657 6.87877 4.33734 8.00478 7.40324L6.85155 1.54261C6.66169 0.728178 6.07822 0.497569 5.35917 0.470703Z" fill="#FAA61A"/>
</svg>
